# xmcd
#
# Track frame offsets:
#	150
#	14465
#	30300
#	47522
#	64660
#	85442
#	105622
#	117990
#	135032
#	151270
#	177012
#	193805
#	210062
#	227457
#
# Disc length: 3274
#
# Revision: 1
# Processed by: cddbd v1.5.1PL0 Copyright (c) Steve Scherf et al.
# Submitted via: ExactAudioCopy v0.90a11
# Normalized: r0:DSETVAR1
#
DISCID=9f0cc80e
DTITLE=Various Artist - Most Wanted Country
DYEAR=1900
DGENRE=
TTITLE0=Dixie Chicks - There's Your Trouble
TTITLE1=Patty Loveless - The Party Ain't Over Yet
TTITLE2=Trisha Yearwood - There Goes My Baby
TTITLE3=Chely Wright - Emma Jean's Guitar
TTITLE4=Vince Gill - If You Have Forever In Your Mind
TTITLE5=Emmylou Harris - Blackhawk
TTITLE6=Randy Travis - Out Of My Bones
TTITLE7=Chris Knight - Framed
TTITLE8=Terri Clark - Now That I Found You
TTITLE9=The Mavericks - Fool #1
TTITLE10=Matraca Berg - Along For The Ride
TTITLE11=Allison Moorer - Pardon Me
TTITLE12=Reba McEntire - Forever Love
TTITLE13=Trisha Yearwood - How Do I Live
EXTD=
EXTT0=
EXTT1=
EXTT2=
EXTT3=
EXTT4=
EXTT5=
EXTT6=
EXTT7=
EXTT8=
EXTT9=
EXTT10=
EXTT11=
EXTT12=
EXTT13=
PLAYORDER=
